<svg xmlns="http://www.w3.org/2000/svg" xmlns:xlink="http://www.w3.org/1999/xlink" width="272" zoomAndPan="magnify" viewBox="0 0 204 60" height="80" preserveAspectRatio="xMidYMid meet" version="1.0"><defs><g/><clipPath id="341fb4a11a"><path d="M 155 10 L 190 10 L 190 21 L 155 21 Z M 155 10 " clip-rule="nonzero"/></clipPath><clipPath id="055121a095"><path d="M 155.28125 16.695312 L 173.421875 -0.140625 L 190.261719 17.996094 L 172.121094 34.835938 Z M 155.28125 16.695312 " clip-rule="nonzero"/></clipPath><clipPath id="1d4f2e8a9f"><path d="M 155.28125 16.695312 L 173.421875 -0.140625 L 190.261719 17.996094 L 172.121094 34.835938 Z M 155.28125 16.695312 " clip-rule="nonzero"/></clipPath><clipPath id="161dcc9905"><path d="M 160 17 L 185 17 L 185 26 L 160 26 Z M 160 17 " clip-rule="nonzero"/></clipPath><clipPath id="35683c5a69"><path d="M 155.28125 16.695312 L 173.421875 -0.140625 L 190.261719 17.996094 L 172.121094 34.835938 Z M 155.28125 16.695312 " clip-rule="nonzero"/></clipPath><clipPath id="f9729b2e0a"><path d="M 155.28125 16.695312 L 173.421875 -0.140625 L 190.261719 17.996094 L 172.121094 34.835938 Z M 155.28125 16.695312 " clip-rule="nonzero"/></clipPath><clipPath id="33d2839cae"><path d="M 168 25 L 176 25 L 176 34 L 168 34 Z M 168 25 " clip-rule="nonzero"/></clipPath><clipPath id="556979e991"><path d="M 155.28125 16.695312 L 173.421875 -0.140625 L 190.261719 17.996094 L 172.121094 34.835938 Z M 155.28125 16.695312 " clip-rule="nonzero"/></clipPath><clipPath id="32291e8e76"><path d="M 155.28125 16.695312 L 173.421875 -0.140625 L 190.261719 17.996094 L 172.121094 34.835938 Z M 155.28125 16.695312 " clip-rule="nonzero"/></clipPath><clipPath id="5612cba6bf"><rect x="0" width="162" y="0" height="44"/></clipPath></defs><g clip-path="url(#341fb4a11a)"><g clip-path="url(#055121a095)"><g clip-path="url(#1d4f2e8a9f)"><path fill="#1cabb0" d="M 155.28125 16.695312 L 157.882812 19.5 C 166.269531 11.714844 179.375 12.203125 187.160156 20.589844 L 189.960938 17.988281 C 180.742188 8.050781 165.214844 7.472656 155.28125 16.695312 Z M 155.28125 16.695312 " fill-opacity="1" fill-rule="nonzero"/></g></g></g><g clip-path="url(#161dcc9905)"><g clip-path="url(#35683c5a69)"><g clip-path="url(#f9729b2e0a)"><path fill="#f15560" d="M 160.488281 22.300781 L 163.089844 25.105469 C 168.378906 20.195312 176.644531 20.503906 181.550781 25.792969 L 184.355469 23.191406 C 178.011719 16.355469 167.320312 15.957031 160.488281 22.300781 Z M 160.488281 22.300781 " fill-opacity="1" fill-rule="nonzero"/></g></g></g><g clip-path="url(#33d2839cae)"><g clip-path="url(#556979e991)"><g clip-path="url(#32291e8e76)"></g></g></g><g transform="matrix(1, 0, 0, 1, 21, 8)"><g clip-path="url(#5612cba6bf)"><g fill="#1cabb0" fill-opacity="1"><g transform="translate(1.104199, 35.753634)"><g><path d="M 22.15625 -18.59375 C 24 -18.59375 25.441406 -18.03125 26.484375 -16.90625 C 27.535156 -15.789062 28.0625 -14.226562 28.0625 -12.21875 L 28.0625 -0.609375 C 28.0625 -0.203125 27.859375 0 27.453125 0 L 23.640625 0 C 23.242188 0 23.046875 -0.203125 23.046875 -0.609375 L 23.046875 -11.109375 C 23.046875 -12.078125 22.796875 -12.847656 22.296875 -13.421875 C 21.796875 -13.992188 21.128906 -14.28125 20.296875 -14.28125 C 19.460938 -14.28125 18.785156 -13.992188 18.265625 -13.421875 C 17.742188 -12.847656 17.484375 -12.085938 17.484375 -11.140625 L 17.484375 -0.609375 C 17.484375 -0.203125 17.28125 0 16.875 0 L 13.109375 0 C 12.703125 0 12.5 -0.203125 12.5 -0.609375 L 12.5 -11.109375 C 12.5 -12.054688 12.238281 -12.820312 11.71875 -13.40625 C 11.195312 -13.988281 10.519531 -14.28125 9.6875 -14.28125 C 8.925781 -14.28125 8.289062 -14.050781 7.78125 -13.59375 C 7.269531 -13.144531 6.96875 -12.519531 6.875 -11.71875 L 6.875 -0.609375 C 6.875 -0.203125 6.671875 0 6.265625 0 L 2.453125 0 C 2.054688 0 1.859375 -0.203125 1.859375 -0.609375 L 1.859375 -17.703125 C 1.859375 -18.097656 2.054688 -18.296875 2.453125 -18.296875 L 6.265625 -18.296875 C 6.671875 -18.296875 6.875 -18.097656 6.875 -17.703125 L 6.875 -16.5625 C 6.875 -16.46875 6.898438 -16.40625 6.953125 -16.375 C 7.015625 -16.351562 7.070312 -16.390625 7.125 -16.484375 C 8.09375 -17.890625 9.585938 -18.59375 11.609375 -18.59375 C 12.796875 -18.59375 13.828125 -18.347656 14.703125 -17.859375 C 15.585938 -17.367188 16.265625 -16.660156 16.734375 -15.734375 C 16.753906 -15.640625 16.796875 -15.597656 16.859375 -15.609375 C 16.921875 -15.617188 16.972656 -15.660156 17.015625 -15.734375 C 17.566406 -16.679688 18.28125 -17.394531 19.15625 -17.875 C 20.03125 -18.351562 21.03125 -18.59375 22.15625 -18.59375 Z M 22.15625 -18.59375 "/></g></g></g><g fill="#1cabb0" fill-opacity="1"><g transform="translate(30.832307, 35.753634)"><g><path d="M 10.6875 -3.953125 C 12.25 -4.023438 13.445312 -4.570312 14.28125 -5.59375 C 14.425781 -5.757812 14.582031 -5.84375 14.75 -5.84375 C 14.882812 -5.84375 15.015625 -5.78125 15.140625 -5.65625 L 17.15625 -3.703125 C 17.300781 -3.554688 17.375 -3.414062 17.375 -3.28125 C 17.375 -3.113281 17.328125 -2.96875 17.234375 -2.84375 C 16.453125 -1.875 15.445312 -1.109375 14.21875 -0.546875 C 13 0.00390625 11.664062 0.28125 10.21875 0.28125 C 8.03125 0.28125 6.21875 -0.273438 4.78125 -1.390625 C 3.351562 -2.503906 2.390625 -4.035156 1.890625 -5.984375 C 1.597656 -7.023438 1.453125 -8.128906 1.453125 -9.296875 C 1.453125 -10.671875 1.585938 -11.832031 1.859375 -12.78125 C 2.328125 -14.539062 3.28125 -15.953125 4.71875 -17.015625 C 6.15625 -18.085938 7.859375 -18.625 9.828125 -18.625 C 12.148438 -18.625 13.992188 -17.9375 15.359375 -16.5625 C 16.722656 -15.1875 17.609375 -13.25 18.015625 -10.75 C 18.109375 -9.96875 18.179688 -9.101562 18.234375 -8.15625 C 18.234375 -7.75 18.03125 -7.546875 17.625 -7.546875 L 6.6875 -7.546875 C 6.550781 -7.546875 6.484375 -7.472656 6.484375 -7.328125 C 6.554688 -6.835938 6.640625 -6.472656 6.734375 -6.234375 C 6.972656 -5.492188 7.441406 -4.925781 8.140625 -4.53125 C 8.835938 -4.144531 9.6875 -3.953125 10.6875 -3.953125 Z M 9.75 -14.28125 C 9 -14.28125 8.367188 -14.09375 7.859375 -13.71875 C 7.347656 -13.351562 6.992188 -12.835938 6.796875 -12.171875 C 6.679688 -11.722656 6.613281 -11.425781 6.59375 -11.28125 C 6.5625 -11.144531 6.617188 -11.078125 6.765625 -11.078125 L 12.8125 -11.078125 C 12.9375 -11.078125 13 -11.125 13 -11.21875 C 13 -11.476562 12.953125 -11.75 12.859375 -12.03125 C 12.640625 -12.71875 12.269531 -13.265625 11.75 -13.671875 C 11.226562 -14.078125 10.5625 -14.28125 9.75 -14.28125 Z M 9.75 -14.28125 "/></g></g></g><g fill="#1cabb0" fill-opacity="1"><g transform="translate(50.306891, 35.753634)"><g><path d="M 11.390625 -18.59375 C 13.296875 -18.59375 14.828125 -18.007812 15.984375 -16.84375 C 17.148438 -15.675781 17.734375 -14.097656 17.734375 -12.109375 L 17.734375 -0.609375 C 17.734375 -0.203125 17.53125 0 17.125 0 L 13.3125 0 C 12.914062 0 12.71875 -0.203125 12.71875 -0.609375 L 12.71875 -11.078125 C 12.71875 -12.023438 12.453125 -12.796875 11.921875 -13.390625 C 11.398438 -13.984375 10.703125 -14.28125 9.828125 -14.28125 C 8.953125 -14.28125 8.238281 -13.984375 7.6875 -13.390625 C 7.144531 -12.796875 6.875 -12.023438 6.875 -11.078125 L 6.875 -0.609375 C 6.875 -0.203125 6.671875 0 6.265625 0 L 2.453125 0 C 2.054688 0 1.859375 -0.203125 1.859375 -0.609375 L 1.859375 -17.703125 C 1.859375 -18.097656 2.054688 -18.296875 2.453125 -18.296875 L 6.265625 -18.296875 C 6.671875 -18.296875 6.875 -18.097656 6.875 -17.703125 L 6.875 -16.703125 C 6.875 -16.609375 6.894531 -16.546875 6.9375 -16.515625 C 6.988281 -16.492188 7.039062 -16.519531 7.09375 -16.59375 C 8.0625 -17.925781 9.492188 -18.59375 11.390625 -18.59375 Z M 11.390625 -18.59375 "/></g></g></g><g fill="#1cabb0" fill-opacity="1"><g transform="translate(69.781475, 35.753634)"><g><path d="M 12.359375 -14.890625 C 12.359375 -14.484375 12.15625 -14.28125 11.75 -14.28125 L 8.546875 -14.28125 C 8.398438 -14.28125 8.328125 -14.207031 8.328125 -14.0625 L 8.328125 -6.6875 C 8.328125 -5.90625 8.488281 -5.332031 8.8125 -4.96875 C 9.132812 -4.601562 9.648438 -4.421875 10.359375 -4.421875 L 11.359375 -4.421875 C 11.765625 -4.421875 11.96875 -4.21875 11.96875 -3.8125 L 11.96875 -0.75 C 11.96875 -0.363281 11.765625 -0.148438 11.359375 -0.109375 C 10.453125 -0.0546875 9.800781 -0.03125 9.40625 -0.03125 C 7.4375 -0.03125 5.960938 -0.363281 4.984375 -1.03125 C 4.015625 -1.695312 3.515625 -2.929688 3.484375 -4.734375 L 3.484375 -14.0625 C 3.484375 -14.207031 3.414062 -14.28125 3.28125 -14.28125 L 1.453125 -14.28125 C 1.054688 -14.28125 0.859375 -14.484375 0.859375 -14.890625 L 0.859375 -17.703125 C 0.859375 -18.097656 1.054688 -18.296875 1.453125 -18.296875 L 3.28125 -18.296875 C 3.414062 -18.296875 3.484375 -18.367188 3.484375 -18.515625 L 3.484375 -22.546875 C 3.484375 -22.941406 3.6875 -23.140625 4.09375 -23.140625 L 7.734375 -23.140625 C 8.128906 -23.140625 8.328125 -22.941406 8.328125 -22.546875 L 8.328125 -18.515625 C 8.328125 -18.367188 8.398438 -18.296875 8.546875 -18.296875 L 11.75 -18.296875 C 12.15625 -18.296875 12.359375 -18.097656 12.359375 -17.703125 Z M 12.359375 -14.890625 "/></g></g></g><g fill="#1cabb0" fill-opacity="1"><g transform="translate(83.310437, 35.753634)"><g><path d="M 10.6875 -3.953125 C 12.25 -4.023438 13.445312 -4.570312 14.28125 -5.59375 C 14.425781 -5.757812 14.582031 -5.84375 14.75 -5.84375 C 14.882812 -5.84375 15.015625 -5.78125 15.140625 -5.65625 L 17.15625 -3.703125 C 17.300781 -3.554688 17.375 -3.414062 17.375 -3.28125 C 17.375 -3.113281 17.328125 -2.96875 17.234375 -2.84375 C 16.453125 -1.875 15.445312 -1.109375 14.21875 -0.546875 C 13 0.00390625 11.664062 0.28125 10.21875 0.28125 C 8.03125 0.28125 6.21875 -0.273438 4.78125 -1.390625 C 3.351562 -2.503906 2.390625 -4.035156 1.890625 -5.984375 C 1.597656 -7.023438 1.453125 -8.128906 1.453125 -9.296875 C 1.453125 -10.671875 1.585938 -11.832031 1.859375 -12.78125 C 2.328125 -14.539062 3.28125 -15.953125 4.71875 -17.015625 C 6.15625 -18.085938 7.859375 -18.625 9.828125 -18.625 C 12.148438 -18.625 13.992188 -17.9375 15.359375 -16.5625 C 16.722656 -15.1875 17.609375 -13.25 18.015625 -10.75 C 18.109375 -9.96875 18.179688 -9.101562 18.234375 -8.15625 C 18.234375 -7.75 18.03125 -7.546875 17.625 -7.546875 L 6.6875 -7.546875 C 6.550781 -7.546875 6.484375 -7.472656 6.484375 -7.328125 C 6.554688 -6.835938 6.640625 -6.472656 6.734375 -6.234375 C 6.972656 -5.492188 7.441406 -4.925781 8.140625 -4.53125 C 8.835938 -4.144531 9.6875 -3.953125 10.6875 -3.953125 Z M 9.75 -14.28125 C 9 -14.28125 8.367188 -14.09375 7.859375 -13.71875 C 7.347656 -13.351562 6.992188 -12.835938 6.796875 -12.171875 C 6.679688 -11.722656 6.613281 -11.425781 6.59375 -11.28125 C 6.5625 -11.144531 6.617188 -11.078125 6.765625 -11.078125 L 12.8125 -11.078125 C 12.9375 -11.078125 13 -11.125 13 -11.21875 C 13 -11.476562 12.953125 -11.75 12.859375 -12.03125 C 12.640625 -12.71875 12.269531 -13.265625 11.75 -13.671875 C 11.226562 -14.078125 10.5625 -14.28125 9.75 -14.28125 Z M 9.75 -14.28125 "/></g></g></g><g fill="#1cabb0" fill-opacity="1"><g transform="translate(102.785022, 35.753634)"><g><path d="M 11.390625 -18.59375 C 13.296875 -18.59375 14.828125 -18.007812 15.984375 -16.84375 C 17.148438 -15.675781 17.734375 -14.097656 17.734375 -12.109375 L 17.734375 -0.609375 C 17.734375 -0.203125 17.53125 0 17.125 0 L 13.3125 0 C 12.914062 0 12.71875 -0.203125 12.71875 -0.609375 L 12.71875 -11.078125 C 12.71875 -12.023438 12.453125 -12.796875 11.921875 -13.390625 C 11.398438 -13.984375 10.703125 -14.28125 9.828125 -14.28125 C 8.953125 -14.28125 8.238281 -13.984375 7.6875 -13.390625 C 7.144531 -12.796875 6.875 -12.023438 6.875 -11.078125 L 6.875 -0.609375 C 6.875 -0.203125 6.671875 0 6.265625 0 L 2.453125 0 C 2.054688 0 1.859375 -0.203125 1.859375 -0.609375 L 1.859375 -17.703125 C 1.859375 -18.097656 2.054688 -18.296875 2.453125 -18.296875 L 6.265625 -18.296875 C 6.671875 -18.296875 6.875 -18.097656 6.875 -17.703125 L 6.875 -16.703125 C 6.875 -16.609375 6.894531 -16.546875 6.9375 -16.515625 C 6.988281 -16.492188 7.039062 -16.519531 7.09375 -16.59375 C 8.0625 -17.925781 9.492188 -18.59375 11.390625 -18.59375 Z M 11.390625 -18.59375 "/></g></g></g><g fill="#1cabb0" fill-opacity="1"><g transform="translate(122.259606, 35.753634)"><g><path d="M 11.390625 -18.59375 C 13.296875 -18.59375 14.828125 -18.007812 15.984375 -16.84375 C 17.148438 -15.675781 17.734375 -14.097656 17.734375 -12.109375 L 17.734375 -0.609375 C 17.734375 -0.203125 17.53125 0 17.125 0 L 13.3125 0 C 12.914062 0 12.71875 -0.203125 12.71875 -0.609375 L 12.71875 -11.078125 C 12.71875 -12.023438 12.453125 -12.796875 11.921875 -13.390625 C 11.398438 -13.984375 10.703125 -14.28125 9.828125 -14.28125 C 8.953125 -14.28125 8.238281 -13.984375 7.6875 -13.390625 C 7.144531 -12.796875 6.875 -12.023438 6.875 -11.078125 L 6.875 -0.609375 C 6.875 -0.203125 6.671875 0 6.265625 0 L 2.453125 0 C 2.054688 0 1.859375 -0.203125 1.859375 -0.609375 L 1.859375 -17.703125 C 1.859375 -18.097656 2.054688 -18.296875 2.453125 -18.296875 L 6.265625 -18.296875 C 6.671875 -18.296875 6.875 -18.097656 6.875 -17.703125 L 6.875 -16.703125 C 6.875 -16.609375 6.894531 -16.546875 6.9375 -16.515625 C 6.988281 -16.492188 7.039062 -16.519531 7.09375 -16.59375 C 8.0625 -17.925781 9.492188 -18.59375 11.390625 -18.59375 Z M 11.390625 -18.59375 "/></g></g></g><g fill="#1cabb0" fill-opacity="1"><g transform="translate(141.73419, 35.753634)"><g><path d="M 9.1875 -18.59375 C 10.726562 -18.59375 12.101562 -18.320312 13.3125 -17.78125 C 14.53125 -17.25 15.472656 -16.519531 16.140625 -15.59375 C 16.816406 -14.664062 17.15625 -13.632812 17.15625 -12.5 L 17.15625 -0.609375 C 17.15625 -0.203125 16.957031 0 16.5625 0 L 12.75 0 C 12.34375 0 12.140625 -0.203125 12.140625 -0.609375 L 12.140625 -1.453125 C 12.140625 -1.554688 12.113281 -1.613281 12.0625 -1.625 C 12.019531 -1.632812 11.960938 -1.601562 11.890625 -1.53125 C 10.796875 -0.320312 9.171875 0.28125 7.015625 0.28125 C 5.179688 0.28125 3.707031 -0.164062 2.59375 -1.0625 C 1.476562 -1.96875 0.921875 -3.300781 0.921875 -5.0625 C 0.921875 -6.882812 1.5625 -8.300781 2.84375 -9.3125 C 4.125 -10.320312 5.953125 -10.828125 8.328125 -10.828125 L 11.921875 -10.828125 C 12.066406 -10.828125 12.140625 -10.894531 12.140625 -11.03125 L 12.140625 -11.78125 C 12.140625 -12.570312 11.894531 -13.1875 11.40625 -13.625 C 10.925781 -14.0625 10.222656 -14.28125 9.296875 -14.28125 C 8.578125 -14.28125 7.988281 -14.160156 7.53125 -13.921875 C 7.070312 -13.679688 6.757812 -13.347656 6.59375 -12.921875 C 6.445312 -12.585938 6.207031 -12.4375 5.875 -12.46875 L 1.921875 -12.96875 C 1.734375 -12.988281 1.582031 -13.039062 1.46875 -13.125 C 1.363281 -13.207031 1.328125 -13.316406 1.359375 -13.453125 C 1.472656 -14.429688 1.878906 -15.3125 2.578125 -16.09375 C 3.273438 -16.875 4.203125 -17.484375 5.359375 -17.921875 C 6.515625 -18.367188 7.789062 -18.59375 9.1875 -18.59375 Z M 8.46875 -3.453125 C 9.488281 -3.453125 10.351562 -3.722656 11.0625 -4.265625 C 11.78125 -4.816406 12.140625 -5.519531 12.140625 -6.375 L 12.140625 -7.625 C 12.140625 -7.757812 12.066406 -7.828125 11.921875 -7.828125 L 9.40625 -7.828125 C 8.332031 -7.828125 7.488281 -7.625 6.875 -7.21875 C 6.257812 -6.820312 5.953125 -6.253906 5.953125 -5.515625 C 5.953125 -4.878906 6.179688 -4.375 6.640625 -4 C 7.097656 -3.632812 7.707031 -3.453125 8.46875 -3.453125 Z M 8.46875 -3.453125 "/></g></g></g></g></g></svg>